<svg width="11" height="12" viewBox="0 0 11 12" fill="none" xmlns="http://www.w3.org/2000/svg">
<path d="M5.49967 0.166504C2.92134 0.166504 0.833008 0.458171 0.833008 2.49984V8.33317C0.833008 8.8465 1.06051 9.30734 1.41634 9.62817V10.6665C1.41634 10.9873 1.67884 11.2498 1.99967 11.2498H2.58301C2.90384 11.2498 3.16634 10.9873 3.16634 10.6665V10.0832H7.83301V10.6665C7.83301 10.9873 8.09551 11.2498 8.41634 11.2498H8.99967C9.32051 11.2498 9.58301 10.9873 9.58301 10.6665V9.62817C9.93884 9.30734 10.1663 8.8465 10.1663 8.33317V2.49984C10.1663 0.458171 8.07801 0.166504 5.49967 0.166504ZM8.80134 1.91067H2.19801C2.51884 1.6015 3.34717 1.33317 5.49967 1.33317C7.65217 1.33317 8.48051 1.6015 8.80134 1.91067ZM8.99967 3.07734V4.83317H1.99967V3.07734H8.99967ZM8.80134 8.759L8.63217 8.9165H2.36717L2.19801 8.759C2.12217 8.69484 1.99967 8.549 1.99967 8.33317V5.99984H8.99967V8.33317C8.99967 8.549 8.87717 8.69484 8.80134 8.759Z" fill="white"/>
</svg>
