<svg width="13" height="13" viewBox="0 0 13 13" fill="none" xmlns="http://www.w3.org/2000/svg">
<g clip-path="url(#clip0_610_8339)">
<path d="M10.5 2H10V1.5C10 1.225 9.775 1 9.5 1C9.225 1 9 1.225 9 1.5V2H4V1.5C4 1.225 3.775 1 3.5 1C3.225 1 3 1.225 3 1.5V2H2.5C1.95 2 1.5 2.45 1.5 3V11C1.5 11.55 1.95 12 2.5 12H10.5C11.05 12 11.5 11.55 11.5 11V3C11.5 2.45 11.05 2 10.5 2ZM10 11H3C2.725 11 2.5 10.775 2.5 10.5V4.5H10.5V10.5C10.5 10.775 10.275 11 10 11Z" fill="#939393"/>
</g>
<defs>
<clipPath id="clip0_610_8339">
<rect width="12" height="12" fill="white" transform="translate(0.5 0.5)"/>
</clipPath>
</defs>
</svg>
