<svg width="16" height="17" viewBox="0 0 16 17" fill="none" xmlns="http://www.w3.org/2000/svg">
<path d="M13.9504 9.28333C13.9838 9.03333 14.0004 8.775 14.0004 8.5C14.0004 8.23333 13.9838 7.96667 13.9421 7.71667L15.6338 6.4C15.7838 6.28333 15.8254 6.05833 15.7338 5.89167L14.1338 3.125C14.0338 2.94167 13.8254 2.88333 13.6421 2.94167L11.6504 3.74167C11.2338 3.425 10.7921 3.15833 10.3004 2.95833L10.0004 0.841667C9.96708 0.641667 9.80042 0.5 9.60042 0.5H6.40042C6.20042 0.5 6.04208 0.641667 6.00875 0.841667L5.70875 2.95833C5.21708 3.15833 4.76708 3.43333 4.35875 3.74167L2.36708 2.94167C2.18375 2.875 1.97542 2.94167 1.87542 3.125L0.28375 5.89167C0.18375 6.06667 0.217084 6.28333 0.38375 6.4L2.07542 7.71667C2.03375 7.96667 2.00042 8.24167 2.00042 8.5C2.00042 8.75833 2.01708 9.03333 2.05875 9.28333L0.367084 10.6C0.217084 10.7167 0.175417 10.9417 0.267084 11.1083L1.86708 13.875C1.96708 14.0583 2.17542 14.1167 2.35875 14.0583L4.35042 13.2583C4.76708 13.575 5.20875 13.8417 5.70042 14.0417L6.00042 16.1583C6.04208 16.3583 6.20042 16.5 6.40042 16.5H9.60042C9.80042 16.5 9.96708 16.3583 9.99208 16.1583L10.2921 14.0417C10.7838 13.8417 11.2338 13.575 11.6421 13.2583L13.6338 14.0583C13.8171 14.125 14.0254 14.0583 14.1254 13.875L15.7254 11.1083C15.8254 10.925 15.7838 10.7167 15.6254 10.6L13.9504 9.28333ZM8.00042 11.5C6.35042 11.5 5.00042 10.15 5.00042 8.5C5.00042 6.85 6.35042 5.5 8.00042 5.5C9.65042 5.5 11.0004 6.85 11.0004 8.5C11.0004 10.15 9.65042 11.5 8.00042 11.5Z" fill="#5B5B5B"/>
</svg>
