<svg width="13" height="17" viewBox="0 0 13 17" fill="none" xmlns="http://www.w3.org/2000/svg">
<path d="M11 6H10.25V4.5C10.25 2.43 8.57 0.75 6.5 0.75C4.43 0.75 2.75 2.43 2.75 4.5V6H2C1.175 6 0.5 6.675 0.5 7.5V15C0.5 15.825 1.175 16.5 2 16.5H11C11.825 16.5 12.5 15.825 12.5 15V7.5C12.5 6.675 11.825 6 11 6ZM4.25 4.5C4.25 3.255 5.255 2.25 6.5 2.25C7.745 2.25 8.75 3.255 8.75 4.5V6H4.25V4.5ZM11 15H2V7.5H11V15ZM6.5 12.75C7.325 12.75 8 12.075 8 11.25C8 10.425 7.325 9.75 6.5 9.75C5.675 9.75 5 10.425 5 11.25C5 12.075 5.675 12.75 6.5 12.75Z" fill="#5B5B5B"/>
</svg>
