<svg width="13" height="14" viewBox="0 0 13 14" fill="none" xmlns="http://www.w3.org/2000/svg">
<path d="M10.25 9.55C9.775 9.55 9.35 9.7375 9.025 10.0312L4.56875 7.4375C4.6 7.29375 4.625 7.15 4.625 7C4.625 6.85 4.6 6.70625 4.56875 6.5625L8.975 3.99375C9.3125 4.30625 9.75625 4.5 10.25 4.5C11.2875 4.5 12.125 3.6625 12.125 2.625C12.125 1.5875 11.2875 0.75 10.25 0.75C9.2125 0.75 8.375 1.5875 8.375 2.625C8.375 2.775 8.4 2.91875 8.43125 3.0625L4.025 5.63125C3.6875 5.31875 3.24375 5.125 2.75 5.125C1.7125 5.125 0.875 5.9625 0.875 7C0.875 8.0375 1.7125 8.875 2.75 8.875C3.24375 8.875 3.6875 8.68125 4.025 8.36875L8.475 10.9688C8.44375 11.1 8.425 11.2375 8.425 11.375C8.425 12.3813 9.24375 13.2 10.25 13.2C11.2563 13.2 12.075 12.3813 12.075 11.375C12.075 10.3687 11.2563 9.55 10.25 9.55ZM10.25 2C10.5938 2 10.875 2.28125 10.875 2.625C10.875 2.96875 10.5938 3.25 10.25 3.25C9.90625 3.25 9.625 2.96875 9.625 2.625C9.625 2.28125 9.90625 2 10.25 2ZM2.75 7.625C2.40625 7.625 2.125 7.34375 2.125 7C2.125 6.65625 2.40625 6.375 2.75 6.375C3.09375 6.375 3.375 6.65625 3.375 7C3.375 7.34375 3.09375 7.625 2.75 7.625ZM10.25 12.0125C9.90625 12.0125 9.625 11.7313 9.625 11.3875C9.625 11.0437 9.90625 10.7625 10.25 10.7625C10.5938 10.7625 10.875 11.0437 10.875 11.3875C10.875 11.7313 10.5938 12.0125 10.25 12.0125Z" fill="white"/>
</svg>
