<svg width="13" height="8" viewBox="0 0 13 8" fill="none" xmlns="http://www.w3.org/2000/svg">
<path d="M12.9163 1.66667C12.9163 2.30833 12.3913 2.83333 11.7497 2.83333C11.6447 2.83333 11.5455 2.82167 11.4522 2.7925L9.37551 4.86333C9.40467 4.95667 9.41634 5.06167 9.41634 5.16667C9.41634 5.80833 8.89134 6.33333 8.24967 6.33333C7.60801 6.33333 7.08301 5.80833 7.08301 5.16667C7.08301 5.06167 7.09467 4.95667 7.12384 4.86333L5.63634 3.37583C5.54301 3.405 5.43801 3.41667 5.33301 3.41667C5.22801 3.41667 5.12301 3.405 5.02967 3.37583L2.37551 6.03583C2.40467 6.12917 2.41634 6.22833 2.41634 6.33333C2.41634 6.975 1.89134 7.5 1.24967 7.5C0.608008 7.5 0.0830078 6.975 0.0830078 6.33333C0.0830078 5.69167 0.608008 5.16667 1.24967 5.16667C1.35467 5.16667 1.45384 5.17833 1.54717 5.2075L4.20717 2.55333C4.17801 2.46 4.16634 2.355 4.16634 2.25C4.16634 1.60833 4.69134 1.08333 5.33301 1.08333C5.97467 1.08333 6.49967 1.60833 6.49967 2.25C6.49967 2.355 6.48801 2.46 6.45884 2.55333L7.94634 4.04083C8.03967 4.01167 8.14467 4 8.24967 4C8.35467 4 8.45967 4.01167 8.55301 4.04083L10.6238 1.96417C10.5947 1.87083 10.583 1.77167 10.583 1.66667C10.583 1.025 11.108 0.5 11.7497 0.5C12.3913 0.5 12.9163 1.025 12.9163 1.66667Z" fill="white"/>
</svg>
