<svg width="47" height="56" viewBox="0 0 47 56" fill="none" xmlns="http://www.w3.org/2000/svg">
<g opacity="0.3">
<path opacity="0.3" d="M32.525 11.7044C31.2812 11.7032 30.0887 11.2085 29.2092 10.329C28.3297 9.44956 27.8351 8.25707 27.8339 7.0133V0.5H6.87206C5.2484 0.5 3.69122 1.14502 2.54312 2.29312C1.39502 3.44122 0.75 4.99834 0.75 6.622V43.5271C0.75 45.1507 1.39502 46.7079 2.54312 47.856C3.69122 49.0041 5.2484 49.6491 6.87206 49.6491H32.0335C33.6572 49.6491 35.2144 49.0041 36.3625 47.856C37.5106 46.7079 38.1556 45.1507 38.1556 43.5271V11.7044H32.525Z" fill="#00C650"/>
</g>
<path d="M38.1556 11.7044H32.5249C31.2812 11.7032 30.0887 11.2085 29.2092 10.329C28.3297 9.44956 27.8351 8.25707 27.8339 7.0133V0.5L38.1556 11.7044Z" fill="#00C650"/>
<path d="M42.5964 39.3138H14.1498C12.1319 39.3138 10.4961 40.9496 10.4961 42.9674V51.4486C10.4961 53.4665 12.1319 55.1023 14.1498 55.1023H42.5964C44.6142 55.1023 46.25 53.4665 46.25 51.4486V42.9674C46.25 40.9496 44.6142 39.3138 42.5964 39.3138Z" fill="#00C650"/>
<path d="M20.6403 49.0439V50.6979H18.9272V49.0439H20.6403Z" fill="white"/>
<path d="M25.6522 50.6979L24.2121 48.5685L22.9723 50.6979H21.0772L23.2634 47.1762L21.0089 43.857H22.9723L24.3759 45.9181L25.5862 43.857H27.4722L25.3155 47.3013L27.6178 50.6979H25.6522Z" fill="white"/>
<path d="M32.8957 49.7697C32.6994 50.0838 32.4177 50.3355 32.0835 50.4954C31.6768 50.6859 31.2312 50.7786 30.7822 50.7661C30.105 50.7945 29.4375 50.5968 28.8849 50.2042C28.6405 50.0207 28.4405 49.7846 28.2999 49.5132C28.1593 49.2418 28.0816 48.9422 28.0727 48.6367H29.8336C29.8462 48.8672 29.9443 49.0846 30.1089 49.2464C30.2726 49.3991 30.4902 49.4809 30.714 49.4739C30.8052 49.4793 30.8966 49.4665 30.9829 49.4365C31.0691 49.4064 31.1487 49.3596 31.2168 49.2987C31.2775 49.2399 31.3252 49.169 31.3569 49.0907C31.3887 49.0123 31.4037 48.9282 31.401 48.8437C31.4033 48.7636 31.3894 48.6837 31.36 48.6091C31.3307 48.5344 31.2866 48.4665 31.2304 48.4092C31.11 48.2873 30.9671 48.19 30.8096 48.1226C30.6443 48.0498 30.4122 47.961 30.1134 47.8564C29.7508 47.7369 29.3967 47.5932 29.0533 47.4264C28.7711 47.281 28.5289 47.0685 28.348 46.8076C28.1381 46.4918 28.0345 46.1172 28.0522 45.7384C28.044 45.363 28.1521 44.9943 28.3617 44.6828C28.5769 44.3784 28.8744 44.1416 29.2193 44.0003C29.617 43.8385 30.0438 43.7611 30.4729 43.7728C31.1243 43.7368 31.7679 43.9291 32.2929 44.3165C32.5163 44.4983 32.6993 44.7247 32.8302 44.9813C32.961 45.2379 33.0368 45.519 33.0527 45.8066H31.2623C31.2423 45.6053 31.1559 45.4164 31.0166 45.2697C30.9454 45.2015 30.8611 45.1486 30.7688 45.1142C30.6765 45.0798 30.5781 45.0645 30.4797 45.0695C30.3091 45.0617 30.1415 45.1168 30.0088 45.2242C29.9475 45.2823 29.8998 45.3532 29.8691 45.4318C29.8385 45.5105 29.8256 45.595 29.8313 45.6792C29.8278 45.8322 29.8851 45.9802 29.9905 46.091C30.1037 46.2092 30.24 46.3029 30.391 46.3663C30.5525 46.4368 30.7845 46.5278 31.0871 46.637C31.4562 46.7573 31.8159 46.9048 32.1632 47.0783C32.4468 47.2313 32.6913 47.4478 32.8775 47.7108C33.0898 48.0317 33.1949 48.4116 33.1778 48.796C33.1748 49.1403 33.0772 49.4771 32.8957 49.7697Z" fill="white"/>
<path d="M35.7464 49.4307H37.9622V50.6979H34.0947V43.857H35.7509L35.7464 49.4307Z" fill="white"/>
<path d="M27.7975 34.8161H11.1171C9.67252 34.8161 8.49634 33.3783 8.49634 31.6083V19.5076C8.49634 17.7399 9.67252 16.3021 11.1171 16.3021H27.8043C29.2466 16.3021 30.4228 17.7399 30.4228 19.5076V31.6083C30.416 33.3783 29.2398 34.8161 27.7975 34.8161ZM11.1171 17.9401C10.4096 17.9401 9.83634 18.6431 9.83634 19.5076V31.6083C9.83634 32.4728 10.4096 33.1758 11.1171 33.1758H27.8043C28.5095 33.1758 29.0828 32.4728 29.0828 31.6083V19.5076C29.0828 18.6431 28.5095 17.9401 27.8043 17.9401H11.1171Z" fill="#00C650"/>
<path d="M29.7471 27.5293H9.16064V29.1696H29.7471V27.5293Z" fill="#00C650"/>
<path d="M29.7471 21.9055H9.16064V23.5457H29.7471V21.9055Z" fill="#00C650"/>
<path d="M24.4738 17.1212H22.8335V33.9948H24.4738V17.1212Z" fill="#00C650"/>
<path d="M16.0722 17.1212H14.4319V33.9948H16.0722V17.1212Z" fill="#00C650"/>
</svg>
